<svg width="26" height="23" viewBox="0 0 26 23" fill="none" xmlns="http://www.w3.org/2000/svg">
<path d="M12.7859 7.88194L24.2342 0.618719C23.6942 0.228657 23.0327 0 22.3172 0H3.24112C2.5256 0 1.86408 0.228657 1.32407 0.618719L12.7859 7.88194Z" fill="white"/>
<path d="M13.7839 11.1636C13.5679 11.325 13.3249 11.4192 13.0684 11.473H13.0549C13.0144 11.473 12.9739 11.4864 12.9334 11.4864C12.9199 11.4864 12.8929 11.4864 12.8794 11.4864C12.8524 11.4864 12.8254 11.4864 12.7984 11.4864C12.7714 11.4864 12.7444 11.4864 12.7174 11.4864C12.7039 11.4864 12.6769 11.4864 12.6634 11.4864C12.6229 11.4864 12.5824 11.473 12.5418 11.473H12.5283C12.2718 11.4326 12.0288 11.325 11.8128 11.1636L0 3.69862V5.46063V8.76943V9.5361V19.7719C0 21.5608 1.44454 23 3.24009 23H22.3161C24.1117 23 25.5562 21.5608 25.5562 19.7719V9.5361V8.76943V5.46063V3.69862L13.7839 11.1636Z" fill="white"/>
</svg>
