<svg width="21" height="24" viewBox="0 0 21 24" fill="none" xmlns="http://www.w3.org/2000/svg">
<path d="M10.2295 13.4504C13.9353 13.4504 16.9394 10.5289 16.9394 6.92513C16.9394 3.32135 13.9353 0.399902 10.2295 0.399902C6.52368 0.399902 3.51953 3.32135 3.51953 6.92513C3.51953 10.5289 6.52368 13.4504 10.2295 13.4504Z" fill="white"/>
<path d="M20.211 20.3967C18.5065 16.7131 14.6645 14.1346 10.2543 14.1346C6.00648 14.1346 2.35389 16.4763 0.514069 19.8968C0.189394 20.3178 0 20.8177 0 21.3703C0 22.7384 1.13636 23.8172 2.51623 23.8172H17.8842C19.2911 23.8172 20.4004 22.7121 20.4004 21.3703C20.4004 21.0282 20.3463 20.6862 20.211 20.3967Z" fill="white"/>
</svg>
