<svg xmlns="http://www.w3.org/2000/svg" height="20" viewBox="0 -960 960 960" width="20"><path d="M480-492.309q-51.749 0-87.874-36.124-36.125-36.125-36.125-87.874 0-51.75 36.125-87.874 36.125-36.125 87.874-36.125 51.749 0 87.874 36.125 36.125 36.124 36.125 87.874 0 51.749-36.125 87.874-36.125 36.124-87.874 36.124ZM212.001-219.694v-72.922q0-18.384 10.962-35.422 10.961-17.038 30.653-29.5 52.308-30.077 110.154-46.115T480-419.691q58.384 0 116.23 16.038 57.846 16.038 110.154 46.115 19.692 11.462 30.653 29 10.962 17.538 10.962 35.922v72.922H212.001Z"/></svg>