<?xml version="1.0" encoding="UTF-8" standalone="no" ?>
<!DOCTYPE svg PUBLIC "-//W3C//DTD SVG 1.1//EN" "http://www.w3.org/Graphics/SVG/1.1/DTD/svg11.dtd">
<svg xmlns="http://www.w3.org/2000/svg" xmlns:xlink="http://www.w3.org/1999/xlink" version="1.1" width="1080" height="1080" viewBox="0 0 1080 1080" xml:space="preserve">
<desc>Created with Fabric.js 5.2.4</desc>
<defs>
</defs>
<g transform="matrix(1 0 0 1 540 540)" id="145f47c8-fc5a-4c45-94ea-edc3e7b896f9"  >
</g>
<g transform="matrix(1 0 0 1 540 540)" id="7d92cc3e-bae8-4b00-9b82-d4818c31c5db"  >
<rect style="stroke: none; stroke-width: 1; stroke-dasharray: none; stroke-linecap: butt; stroke-dashoffset: 0; stroke-linejoin: miter; stroke-miterlimit: 4; fill: rgb(255,255,255); fill-rule: nonzero; opacity: 1; visibility: hidden;" vector-effect="non-scaling-stroke"  x="-540" y="-540" rx="0" ry="0" width="1080" height="1080" />
</g>
<g transform="matrix(0.42 0 0 0.42 670.75 567.75)"  >
<g style="opacity: 0.65;"   >
		<g transform="matrix(-0.83 0.55 0.55 0.84 98.53 -1543.58)"  >
<rect style="stroke: none; stroke-width: 1; stroke-dasharray: none; stroke-linecap: butt; stroke-dashoffset: 0; stroke-linejoin: miter; stroke-miterlimit: 4; fill: rgb(67,20,203); fill-rule: nonzero; opacity: 0.67;" vector-effect="non-scaling-stroke"  x="-117.98" y="-664.195" rx="0" ry="0" width="235.96" height="1328.39" />
</g>
		<g transform="matrix(-0.83 0.55 0.55 0.84 -98.14 -1413.21)"  >
<rect style="stroke: none; stroke-width: 1; stroke-dasharray: none; stroke-linecap: butt; stroke-dashoffset: 0; stroke-linejoin: miter; stroke-miterlimit: 4; fill: rgb(140,53,236); fill-rule: nonzero; opacity: 1;" vector-effect="non-scaling-stroke"  x="-117.98" y="-664.195" rx="0" ry="0" width="235.96" height="1328.39" />
</g>
		<g transform="matrix(-0.83 0.55 0.55 0.84 -294.82 -1282.83)"  >
<rect style="stroke: none; stroke-width: 1; stroke-dasharray: none; stroke-linecap: butt; stroke-dashoffset: 0; stroke-linejoin: miter; stroke-miterlimit: 4; fill: rgb(187,68,240); fill-rule: nonzero; opacity: 1;" vector-effect="non-scaling-stroke"  x="-117.98" y="-664.195" rx="0" ry="0" width="235.96" height="1328.39" />
</g>
		<g transform="matrix(-0.83 0.55 0.55 0.84 -491.49 -1152.46)"  >
<rect style="stroke: none; stroke-width: 1; stroke-dasharray: none; stroke-linecap: butt; stroke-dashoffset: 0; stroke-linejoin: miter; stroke-miterlimit: 4; fill: rgb(229,84,243); fill-rule: nonzero; opacity: 1;" vector-effect="non-scaling-stroke"  x="-117.98" y="-664.195" rx="0" ry="0" width="235.96" height="1328.39" />
</g>
		<g transform="matrix(-0.83 0.55 0.55 0.84 -688.16 -1022.09)"  >
<rect style="stroke: none; stroke-width: 1; stroke-dasharray: none; stroke-linecap: butt; stroke-dashoffset: 0; stroke-linejoin: miter; stroke-miterlimit: 4; fill: rgb(246,100,228); fill-rule: nonzero; opacity: 1;" vector-effect="non-scaling-stroke"  x="-117.98" y="-664.195" rx="0" ry="0" width="235.96" height="1328.39" />
</g>
		<g transform="matrix(-0.83 0.55 0.55 0.84 -884.83 -891.72)"  >
<rect style="stroke: none; stroke-width: 1; stroke-dasharray: none; stroke-linecap: butt; stroke-dashoffset: 0; stroke-linejoin: miter; stroke-miterlimit: 4; fill: rgb(249,116,204); fill-rule: nonzero; opacity: 1;" vector-effect="non-scaling-stroke"  x="-117.98" y="-664.195" rx="0" ry="0" width="235.96" height="1328.39" />
</g>
		<g transform="matrix(-0.83 0.55 0.55 0.84 -1081.5 -761.35)"  >
<rect style="stroke: none; stroke-width: 1; stroke-dasharray: none; stroke-linecap: butt; stroke-dashoffset: 0; stroke-linejoin: miter; stroke-miterlimit: 4; fill: rgb(251,133,185); fill-rule: nonzero; opacity: 1;" vector-effect="non-scaling-stroke"  x="-117.98" y="-664.195" rx="0" ry="0" width="235.96" height="1328.39" />
</g>
		<g transform="matrix(-0.83 0.55 0.55 0.84 -1278.17 -630.98)"  >
<rect style="stroke: none; stroke-width: 1; stroke-dasharray: none; stroke-linecap: butt; stroke-dashoffset: 0; stroke-linejoin: miter; stroke-miterlimit: 4; fill: rgb(253,151,174); fill-rule: nonzero; opacity: 1;" vector-effect="non-scaling-stroke"  x="-117.98" y="-664.195" rx="0" ry="0" width="235.96" height="1328.39" />
</g>
		<g transform="matrix(-0.83 0.55 0.55 0.84 -1474.84 -500.61)"  >
<rect style="stroke: none; stroke-width: 1; stroke-dasharray: none; stroke-linecap: butt; stroke-dashoffset: 0; stroke-linejoin: miter; stroke-miterlimit: 4; fill: rgb(254,169,170); fill-rule: nonzero; opacity: 1;" vector-effect="non-scaling-stroke"  x="-117.98" y="-664.195" rx="0" ry="0" width="235.96" height="1328.39" />
</g>
		<g transform="matrix(-0.83 0.55 0.55 0.84 -1671.51 -370.24)"  >
<rect style="stroke: none; stroke-width: 1; stroke-dasharray: none; stroke-linecap: butt; stroke-dashoffset: 0; stroke-linejoin: miter; stroke-miterlimit: 4; fill: rgb(255,201,187); fill-rule: nonzero; opacity: 1;" vector-effect="non-scaling-stroke"  x="-117.98" y="-664.195" rx="0" ry="0" width="235.96" height="1328.39" />
</g>
</g>
</g>
</svg>